<svg width="512" height="512" viewBox="0 0 512 512" fill="none" xmlns="http://www.w3.org/2000/svg">
<rect width="512" height="512" fill="#14213D"/>
<path d="M40.4375 125.5V171H31.0625V125.5H40.4375ZM58.5625 144.938V152.25H37.875V144.938H58.5625ZM60.75 125.5V132.844H37.875V125.5H60.75ZM73.8125 144.562V171H64.8125V137.188H73.2812L73.8125 144.562ZM84 136.969L83.8438 145.312C83.4062 145.25 82.875 145.198 82.25 145.156C81.6458 145.094 81.0938 145.062 80.5938 145.062C79.3229 145.062 78.2188 145.229 77.2812 145.562C76.3646 145.875 75.5938 146.344 74.9688 146.969C74.3646 147.594 73.9062 148.354 73.5938 149.25C73.3021 150.146 73.1354 151.167 73.0938 152.312L71.2812 151.75C71.2812 149.562 71.5 147.552 71.9375 145.719C72.375 143.865 73.0104 142.25 73.8438 140.875C74.6979 139.5 75.7396 138.438 76.9688 137.688C78.1979 136.938 79.6042 136.562 81.1875 136.562C81.6875 136.562 82.1979 136.604 82.7188 136.688C83.2396 136.75 83.6667 136.844 84 136.969ZM103.188 171.625C100.562 171.625 98.2083 171.208 96.125 170.375C94.0417 169.521 92.2708 168.344 90.8125 166.844C89.375 165.344 88.2708 163.604 87.5 161.625C86.7292 159.625 86.3438 157.5 86.3438 155.25V154C86.3438 151.438 86.7083 149.094 87.4375 146.969C88.1667 144.844 89.2083 143 90.5625 141.438C91.9375 139.875 93.6042 138.677 95.5625 137.844C97.5208 136.99 99.7292 136.562 102.188 136.562C104.583 136.562 106.708 136.958 108.562 137.75C110.417 138.542 111.969 139.667 113.219 141.125C114.49 142.583 115.448 144.333 116.094 146.375C116.74 148.396 117.062 150.646 117.062 153.125V156.875H90.1875V150.875H108.219V150.188C108.219 148.938 107.99 147.823 107.531 146.844C107.094 145.844 106.427 145.052 105.531 144.469C104.635 143.885 103.49 143.594 102.094 143.594C100.906 143.594 99.8854 143.854 99.0312 144.375C98.1771 144.896 97.4792 145.625 96.9375 146.562C96.4167 147.5 96.0208 148.604 95.75 149.875C95.5 151.125 95.375 152.5 95.375 154V155.25C95.375 156.604 95.5625 157.854 95.9375 159C96.3333 160.146 96.8854 161.135 97.5938 161.969C98.3229 162.802 99.1979 163.448 100.219 163.906C101.26 164.365 102.438 164.594 103.75 164.594C105.375 164.594 106.885 164.281 108.281 163.656C109.698 163.01 110.917 162.042 111.938 160.75L116.312 165.5C115.604 166.521 114.635 167.5 113.406 168.438C112.198 169.375 110.74 170.146 109.031 170.75C107.323 171.333 105.375 171.625 103.188 171.625ZM137.75 171.625C135.125 171.625 132.771 171.208 130.688 170.375C128.604 169.521 126.833 168.344 125.375 166.844C123.938 165.344 122.833 163.604 122.062 161.625C121.292 159.625 120.906 157.5 120.906 155.25V154C120.906 151.438 121.271 149.094 122 146.969C122.729 144.844 123.771 143 125.125 141.438C126.5 139.875 128.167 138.677 130.125 137.844C132.083 136.99 134.292 136.562 136.75 136.562C139.146 136.562 141.271 136.958 143.125 137.75C144.979 138.542 146.531 139.667 147.781 141.125C149.052 142.583 150.01 144.333 150.656 146.375C151.302 148.396 151.625 150.646 151.625 153.125V156.875H124.75V150.875H142.781V150.188C142.781 148.938 142.552 147.823 142.094 146.844C141.656 145.844 140.99 145.052 140.094 144.469C139.198 143.885 138.052 143.594 136.656 143.594C135.469 143.594 134.448 143.854 133.594 144.375C132.74 144.896 132.042 145.625 131.5 146.562C130.979 147.5 130.583 148.604 130.312 149.875C130.062 151.125 129.938 152.5 129.938 154V155.25C129.938 156.604 130.125 157.854 130.5 159C130.896 160.146 131.448 161.135 132.156 161.969C132.885 162.802 133.76 163.448 134.781 163.906C135.823 164.365 137 164.594 138.312 164.594C139.938 164.594 141.448 164.281 142.844 163.656C144.26 163.01 145.479 162.042 146.5 160.75L150.875 165.5C150.167 166.521 149.198 167.5 147.969 168.438C146.76 169.375 145.302 170.146 143.594 170.75C141.885 171.333 139.938 171.625 137.75 171.625Z" fill="white"/>
<path d="M51.4062 228.5V274H42.0625V228.5H51.4062ZM65.4062 228.5V235.844H28.2812V228.5H65.4062ZM63.3125 257.438V256.781C63.3125 254.302 63.6667 252.021 64.375 249.938C65.0833 247.833 66.1146 246.01 67.4688 244.469C68.8229 242.927 70.4896 241.729 72.4688 240.875C74.4479 240 76.7188 239.562 79.2812 239.562C81.8438 239.562 84.125 240 86.125 240.875C88.125 241.729 89.8021 242.927 91.1562 244.469C92.5312 246.01 93.5729 247.833 94.2812 249.938C94.9896 252.021 95.3438 254.302 95.3438 256.781V257.438C95.3438 259.896 94.9896 262.177 94.2812 264.281C93.5729 266.365 92.5312 268.188 91.1562 269.75C89.8021 271.292 88.1354 272.49 86.1562 273.344C84.1771 274.198 81.9062 274.625 79.3438 274.625C76.7812 274.625 74.5 274.198 72.5 273.344C70.5208 272.49 68.8438 271.292 67.4688 269.75C66.1146 268.188 65.0833 266.365 64.375 264.281C63.6667 262.177 63.3125 259.896 63.3125 257.438ZM72.3125 256.781V257.438C72.3125 258.854 72.4375 260.177 72.6875 261.406C72.9375 262.635 73.3333 263.719 73.875 264.656C74.4375 265.573 75.1667 266.292 76.0625 266.812C76.9583 267.333 78.0521 267.594 79.3438 267.594C80.5938 267.594 81.6667 267.333 82.5625 266.812C83.4583 266.292 84.1771 265.573 84.7188 264.656C85.2604 263.719 85.6562 262.635 85.9062 261.406C86.1771 260.177 86.3125 258.854 86.3125 257.438V256.781C86.3125 255.406 86.1771 254.115 85.9062 252.906C85.6562 251.677 85.25 250.594 84.6875 249.656C84.1458 248.698 83.4271 247.948 82.5312 247.406C81.6354 246.865 80.5521 246.594 79.2812 246.594C78.0104 246.594 76.9271 246.865 76.0312 247.406C75.1562 247.948 74.4375 248.698 73.875 249.656C73.3333 250.594 72.9375 251.677 72.6875 252.906C72.4375 254.115 72.3125 255.406 72.3125 256.781Z" fill="white"/>
<path d="M67.125 353.219V371.25C66.4167 372.104 65.3229 373.031 63.8438 374.031C62.3646 375.01 60.4583 375.854 58.125 376.562C55.7917 377.271 52.9688 377.625 49.6562 377.625C46.7188 377.625 44.0417 377.146 41.625 376.188C39.2083 375.208 37.125 373.781 35.375 371.906C33.6458 370.031 32.3125 367.74 31.375 365.031C30.4375 362.302 29.9688 359.188 29.9688 355.688V352.844C29.9688 349.344 30.4167 346.229 31.3125 343.5C32.2292 340.771 33.5312 338.469 35.2188 336.594C36.9062 334.719 38.9167 333.292 41.25 332.312C43.5833 331.333 46.1771 330.844 49.0312 330.844C52.9896 330.844 56.2396 331.49 58.7812 332.781C61.3229 334.052 63.2604 335.823 64.5938 338.094C65.9479 340.344 66.7812 342.927 67.0938 345.844H58C57.7708 344.302 57.3333 342.958 56.6875 341.812C56.0417 340.667 55.1146 339.771 53.9062 339.125C52.7188 338.479 51.1771 338.156 49.2812 338.156C47.7188 338.156 46.3229 338.479 45.0938 339.125C43.8854 339.75 42.8646 340.677 42.0312 341.906C41.1979 343.135 40.5625 344.656 40.125 346.469C39.6875 348.281 39.4688 350.385 39.4688 352.781V355.688C39.4688 358.062 39.6979 360.167 40.1562 362C40.6146 363.812 41.2917 365.344 42.1875 366.594C43.1042 367.823 44.2292 368.75 45.5625 369.375C46.8958 370 48.4479 370.312 50.2188 370.312C51.6979 370.312 52.9271 370.188 53.9062 369.938C54.9062 369.688 55.7083 369.385 56.3125 369.031C56.9375 368.656 57.4167 368.302 57.75 367.969V359.906H49.1875V353.219H67.125ZM92.375 369.375V354.312C92.375 353.229 92.1979 352.302 91.8438 351.531C91.4896 350.74 90.9375 350.125 90.1875 349.688C89.4583 349.25 88.5104 349.031 87.3438 349.031C86.3438 349.031 85.4792 349.208 84.75 349.562C84.0208 349.896 83.4583 350.385 83.0625 351.031C82.6667 351.656 82.4688 352.396 82.4688 353.25H73.4688C73.4688 351.812 73.8021 350.448 74.4688 349.156C75.1354 347.865 76.1042 346.729 77.375 345.75C78.6458 344.75 80.1562 343.969 81.9062 343.406C83.6771 342.844 85.6562 342.562 87.8438 342.562C90.4688 342.562 92.8021 343 94.8438 343.875C96.8854 344.75 98.4896 346.062 99.6562 347.812C100.844 349.562 101.438 351.75 101.438 354.375V368.844C101.438 370.698 101.552 372.219 101.781 373.406C102.01 374.573 102.344 375.594 102.781 376.469V377H93.6875C93.25 376.083 92.9167 374.938 92.6875 373.562C92.4792 372.167 92.375 370.771 92.375 369.375ZM93.5625 356.406L93.625 361.5H88.5938C87.4062 361.5 86.375 361.635 85.5 361.906C84.625 362.177 83.9062 362.562 83.3438 363.062C82.7812 363.542 82.3646 364.104 82.0938 364.75C81.8438 365.396 81.7188 366.104 81.7188 366.875C81.7188 367.646 81.8958 368.344 82.25 368.969C82.6042 369.573 83.1146 370.052 83.7812 370.406C84.4479 370.74 85.2292 370.906 86.125 370.906C87.4792 370.906 88.6562 370.635 89.6562 370.094C90.6562 369.552 91.4271 368.885 91.9688 368.094C92.5312 367.302 92.8229 366.552 92.8438 365.844L95.2188 369.656C94.8854 370.51 94.4271 371.396 93.8438 372.312C93.2812 373.229 92.5625 374.094 91.6875 374.906C90.8125 375.698 89.7604 376.354 88.5312 376.875C87.3021 377.375 85.8438 377.625 84.1562 377.625C82.0104 377.625 80.0625 377.198 78.3125 376.344C76.5833 375.469 75.2083 374.271 74.1875 372.75C73.1875 371.208 72.6875 369.458 72.6875 367.5C72.6875 365.729 73.0208 364.156 73.6875 362.781C74.3542 361.406 75.3333 360.25 76.625 359.312C77.9375 358.354 79.5729 357.635 81.5312 357.156C83.4896 356.656 85.7604 356.406 88.3438 356.406H93.5625ZM117.375 350.188V377H108.344V343.188H116.812L117.375 350.188ZM116.125 358.906H113.625C113.625 356.552 113.906 354.385 114.469 352.406C115.052 350.406 115.896 348.677 117 347.219C118.125 345.74 119.51 344.594 121.156 343.781C122.802 342.969 124.708 342.562 126.875 342.562C128.375 342.562 129.75 342.792 131 343.25C132.25 343.688 133.323 344.385 134.219 345.344C135.135 346.281 135.844 347.51 136.344 349.031C136.844 350.531 137.094 352.333 137.094 354.438V377H128.094V355.438C128.094 353.896 127.885 352.708 127.469 351.875C127.052 351.042 126.458 350.458 125.688 350.125C124.938 349.792 124.031 349.625 122.969 349.625C121.802 349.625 120.781 349.865 119.906 350.344C119.052 350.823 118.344 351.49 117.781 352.344C117.219 353.177 116.802 354.156 116.531 355.281C116.26 356.406 116.125 357.615 116.125 358.906ZM136.25 357.875L133.031 358.281C133.031 356.073 133.302 354.021 133.844 352.125C134.406 350.229 135.229 348.562 136.312 347.125C137.417 345.688 138.781 344.573 140.406 343.781C142.031 342.969 143.906 342.562 146.031 342.562C147.656 342.562 149.135 342.802 150.469 343.281C151.802 343.74 152.938 344.479 153.875 345.5C154.833 346.5 155.562 347.812 156.062 349.438C156.583 351.062 156.844 353.052 156.844 355.406V377H147.812V355.406C147.812 353.844 147.604 352.656 147.188 351.844C146.792 351.01 146.208 350.438 145.438 350.125C144.688 349.792 143.792 349.625 142.75 349.625C141.667 349.625 140.719 349.844 139.906 350.281C139.094 350.698 138.417 351.281 137.875 352.031C137.333 352.781 136.927 353.656 136.656 354.656C136.385 355.635 136.25 356.708 136.25 357.875ZM179.375 377.625C176.75 377.625 174.396 377.208 172.312 376.375C170.229 375.521 168.458 374.344 167 372.844C165.562 371.344 164.458 369.604 163.688 367.625C162.917 365.625 162.531 363.5 162.531 361.25V360C162.531 357.438 162.896 355.094 163.625 352.969C164.354 350.844 165.396 349 166.75 347.438C168.125 345.875 169.792 344.677 171.75 343.844C173.708 342.99 175.917 342.562 178.375 342.562C180.771 342.562 182.896 342.958 184.75 343.75C186.604 344.542 188.156 345.667 189.406 347.125C190.677 348.583 191.635 350.333 192.281 352.375C192.927 354.396 193.25 356.646 193.25 359.125V362.875H166.375V356.875H184.406V356.188C184.406 354.938 184.177 353.823 183.719 352.844C183.281 351.844 182.615 351.052 181.719 350.469C180.823 349.885 179.677 349.594 178.281 349.594C177.094 349.594 176.073 349.854 175.219 350.375C174.365 350.896 173.667 351.625 173.125 352.562C172.604 353.5 172.208 354.604 171.938 355.875C171.688 357.125 171.562 358.5 171.562 360V361.25C171.562 362.604 171.75 363.854 172.125 365C172.521 366.146 173.073 367.135 173.781 367.969C174.51 368.802 175.385 369.448 176.406 369.906C177.448 370.365 178.625 370.594 179.938 370.594C181.562 370.594 183.073 370.281 184.469 369.656C185.885 369.01 187.104 368.042 188.125 366.75L192.5 371.5C191.792 372.521 190.823 373.5 189.594 374.438C188.385 375.375 186.927 376.146 185.219 376.75C183.51 377.333 181.562 377.625 179.375 377.625Z" fill="white"/>
<path d="M411 248H399C397.939 248 396.922 247.579 396.172 246.828C395.421 246.078 395 245.061 395 244C395 242.939 395.421 241.922 396.172 241.172C396.922 240.421 397.939 240 399 240H411C412.061 240 413.078 240.421 413.828 241.172C414.579 241.922 415 242.939 415 244C415 245.061 414.579 246.078 413.828 246.828C413.078 247.579 412.061 248 411 248ZM375 240H371V236C371 234.939 370.579 233.922 369.828 233.172C369.078 232.421 368.061 232 367 232C365.939 232 364.922 232.421 364.172 233.172C363.421 233.922 363 234.939 363 236V240H359C357.939 240 356.922 240.421 356.172 241.172C355.421 241.922 355 242.939 355 244C355 245.061 355.421 246.078 356.172 246.828C356.922 247.579 357.939 248 359 248H363V252C363 253.061 363.421 254.078 364.172 254.828C364.922 255.579 365.939 256 367 256C368.061 256 369.078 255.579 369.828 254.828C370.579 254.078 371 253.061 371 252V248H375C376.061 248 377.078 247.579 377.828 246.828C378.579 246.078 379 245.061 379 244C379 242.939 378.579 241.922 377.828 241.172C377.078 240.421 376.061 240 375 240ZM443.74 292.325C442.233 294.478 440.272 296.274 437.996 297.588C435.72 298.902 433.184 299.702 430.566 299.931C427.948 300.161 425.311 299.814 422.841 298.915C420.372 298.017 418.129 296.588 416.27 294.73C416.21 294.67 416.15 294.61 416.095 294.545L396.24 272H377.74L357.905 294.545L357.73 294.73C354.351 298.102 349.774 299.997 345 300C342.372 299.999 339.777 299.423 337.395 298.312C335.014 297.2 332.905 295.581 331.216 293.568C329.527 291.555 328.3 289.196 327.62 286.658C326.94 284.119 326.824 281.463 327.28 278.875C327.278 278.852 327.278 278.828 327.28 278.805L335.465 236.76C336.683 229.825 340.306 223.542 345.698 219.014C351.089 214.485 357.904 212.002 364.945 212H409C416.02 212.011 422.814 214.48 428.202 218.979C433.591 223.477 437.235 229.72 438.5 236.625C438.5 236.655 438.5 236.685 438.5 236.715L446.685 278.8C446.687 278.823 446.687 278.847 446.685 278.87C447.109 281.196 447.066 283.583 446.561 285.893C446.055 288.202 445.097 290.389 443.74 292.325ZM409 264C414.835 264 420.431 261.682 424.556 257.556C428.682 253.431 431 247.835 431 242C431 236.165 428.682 230.569 424.556 226.444C420.431 222.318 414.835 220 409 220H364.945C359.78 220.005 354.782 221.831 350.83 225.157C346.878 228.483 344.226 233.096 343.34 238.185V238.25L335.15 280.295C334.788 282.379 335.096 284.525 336.031 286.423C336.965 288.321 338.478 289.874 340.351 290.858C342.223 291.842 344.36 292.207 346.453 291.9C348.547 291.593 350.489 290.63 352 289.15L372.96 265.355C373.335 264.929 373.797 264.588 374.314 264.355C374.831 264.121 375.392 264 375.96 264H409ZM438.85 280.295L434.48 257.795C431.792 262.135 428.042 265.717 423.583 268.203C419.124 270.689 414.105 271.996 409 272H406.9L422 289.155C423.139 290.262 424.523 291.084 426.041 291.552C427.558 292.021 429.165 292.123 430.73 291.85C433.336 291.39 435.654 289.915 437.175 287.749C438.696 285.583 439.297 282.903 438.845 280.295H438.85Z" fill="white"/>
</svg>
